<?xml version="1.0" standalone="no"?>
<!DOCTYPE svg PUBLIC "-//W3C//DTD SVG 20010904//EN"
 "http://www.w3.org/TR/2001/REC-SVG-20010904/DTD/svg10.dtd">
<svg version="1.0" xmlns="http://www.w3.org/2000/svg"
 width="64.000000pt" height="64.000000pt" viewBox="0 0 64.000000 64.000000"
 preserveAspectRatio="xMidYMid meet">

<g transform="translate(0.000000,64.000000) scale(0.100000,-0.100000)"
fill="#000000" stroke="none">
<path d="M268 620 c-15 -11 -51 -22 -89 -27 l-64 -8 3 -37 c3 -28 -3 -46 -21
-70 -24 -31 -26 -44 -36 -230 -6 -108 -11 -208 -11 -222 l0 -26 271 0 272 0
-7 118 c-19 354 -16 330 -47 363 -15 16 -29 37 -31 46 -2 10 -19 21 -44 28
-26 6 -54 24 -76 48 -41 43 -80 49 -120 17z m91 -17 l24 -16 -21 -8 c-13 -5
-22 -17 -22 -29 0 -11 -4 -20 -10 -20 -5 0 -10 15 -10 33 0 18 -5 38 -12 45
-19 19 23 15 51 -5z m98 -70 c29 -5 32 -8 27 -32 -10 -48 -13 -51 -44 -51 -27
0 -31 4 -41 46 -8 31 -16 44 -25 40 -8 -3 -14 0 -14 6 0 7 11 8 33 4 17 -4 47
-10 64 -13z m100 -305 c5 -106 8 -196 6 -200 -2 -5 -115 -8 -249 -8 l-246 0 6
38 c3 20 8 110 12 200 l6 162 228 0 227 0 10 -192z"/>
<path d="M211 381 c-8 -14 -7 -22 4 -31 8 -7 15 -28 15 -47 0 -47 16 -72 56
-89 29 -12 39 -12 68 0 40 17 56 42 56 89 0 19 7 40 15 47 19 16 2 50 -26 50
-25 0 -36 -27 -21 -51 30 -47 -6 -119 -58 -119 -52 0 -88 72 -58 119 6 10 8
26 5 35 -9 22 -44 20 -56 -3z"/>
</g>
</svg>
